<?xml version="1.0" encoding="UTF-8"?>
<svg width="24px" height="24px" viewBox="0 0 24 24" version="1.1" xmlns="http://www.w3.org/2000/svg" xmlns:xlink="http://www.w3.org/1999/xlink">
    <title>ic_pause_filled</title>
    <g id="ic_pause_filled" stroke="none" stroke-width="1" fill="none" fill-rule="evenodd">
        <g id="编组">
            <rect id="矩形" fill="#D8D8D8" opacity="0" x="0" y="0" width="24" height="24"></rect>
            <path d="M12,2 C17.514,2 22,6.486 22,12 C22,17.514 17.514,22 12,22 C6.486,22 2,17.514 2,12 C2,6.486 6.486,2 12,2 Z M14.5,7.749 C14.086,7.749 13.75,8.085 13.75,8.499 L13.75,8.499 L13.75,15.498 C13.75,15.912 14.086,16.248 14.5,16.248 C14.914,16.248 15.25,15.912 15.25,15.498 L15.25,15.498 L15.25,8.499 C15.25,8.085 14.914,7.749 14.5,7.749 Z M9.5,7.749 C9.086,7.749 8.75,8.085 8.75,8.499 L8.75,8.499 L8.75,15.498 C8.75,15.912 9.086,16.248 9.5,16.248 C9.914,16.248 10.25,15.912 10.25,15.498 L10.25,15.498 L10.25,8.499 C10.25,8.085 9.914,7.749 9.5,7.749 Z" id="形状结合" fill="#191919"></path>
        </g>
    </g>
</svg>
